<mxfile host="app.diagrams.net" modified="2023-12-01T03:12:52.672Z" agent="Mozilla/5.0 (Macintosh; Intel Mac OS X 10_15_7) AppleWebKit/537.36 (KHTML, like Gecko) Chrome/119.0.0.0 Safari/537.36" etag="vUAjPvFilyJ-rGvYU-bz" version="22.1.5" type="github">
  <diagram name="第 1 页" id="BCM7maN5AzncqiT-iy19">
    <mxGraphModel dx="954" dy="610" grid="1" gridSize="10" guides="1" tooltips="1" connect="1" arrows="1" fold="1" page="1" pageScale="1" pageWidth="827" pageHeight="1169" math="0" shadow="0">
      <root>
        <mxCell id="0" />
        <mxCell id="1" parent="0" />
        <mxCell id="a_Q3sGPEtlaXUqwok0g--1" value="order-with-pay-result" style="rounded=0;whiteSpace=wrap;html=1;" vertex="1" parent="1">
          <mxGeometry x="170" y="200" width="120" height="60" as="geometry" />
        </mxCell>
        <mxCell id="a_Q3sGPEtlaXUqwok0g--8" style="edgeStyle=orthogonalEdgeStyle;rounded=0;orthogonalLoop=1;jettySize=auto;html=1;" edge="1" parent="1" source="a_Q3sGPEtlaXUqwok0g--2" target="a_Q3sGPEtlaXUqwok0g--7">
          <mxGeometry relative="1" as="geometry">
            <Array as="points">
              <mxPoint x="790" y="220" />
              <mxPoint x="790" y="220" />
            </Array>
          </mxGeometry>
        </mxCell>
        <mxCell id="a_Q3sGPEtlaXUqwok0g--2" value="pay-result-verify" style="rounded=0;whiteSpace=wrap;html=1;" vertex="1" parent="1">
          <mxGeometry x="580" y="200" width="120" height="60" as="geometry" />
        </mxCell>
        <mxCell id="a_Q3sGPEtlaXUqwok0g--3" value="Redis-DB" style="shape=cylinder3;whiteSpace=wrap;html=1;boundedLbl=1;backgroundOutline=1;size=15;" vertex="1" parent="1">
          <mxGeometry x="610" y="450" width="60" height="80" as="geometry" />
        </mxCell>
        <mxCell id="a_Q3sGPEtlaXUqwok0g--6" value="send verify request" style="text;html=1;strokeColor=none;fillColor=none;align=center;verticalAlign=middle;whiteSpace=wrap;rounded=0;" vertex="1" parent="1">
          <mxGeometry x="360" y="186" width="150" height="30" as="geometry" />
        </mxCell>
        <mxCell id="a_Q3sGPEtlaXUqwok0g--9" style="edgeStyle=orthogonalEdgeStyle;rounded=0;orthogonalLoop=1;jettySize=auto;html=1;entryX=1;entryY=0.75;entryDx=0;entryDy=0;" edge="1" parent="1" source="a_Q3sGPEtlaXUqwok0g--7" target="a_Q3sGPEtlaXUqwok0g--2">
          <mxGeometry relative="1" as="geometry">
            <Array as="points">
              <mxPoint x="840" y="245" />
              <mxPoint x="840" y="245" />
            </Array>
          </mxGeometry>
        </mxCell>
        <mxCell id="a_Q3sGPEtlaXUqwok0g--7" value="Apple&amp;amp;Google-Server" style="rounded=0;whiteSpace=wrap;html=1;" vertex="1" parent="1">
          <mxGeometry x="880" y="200" width="140" height="60" as="geometry" />
        </mxCell>
        <mxCell id="a_Q3sGPEtlaXUqwok0g--10" value="" style="endArrow=classic;html=1;rounded=0;exitX=1;exitY=0.25;exitDx=0;exitDy=0;entryX=0;entryY=0.25;entryDx=0;entryDy=0;" edge="1" parent="1" source="a_Q3sGPEtlaXUqwok0g--1" target="a_Q3sGPEtlaXUqwok0g--2">
          <mxGeometry width="50" height="50" relative="1" as="geometry">
            <mxPoint x="310" y="320" as="sourcePoint" />
            <mxPoint x="360" y="270" as="targetPoint" />
          </mxGeometry>
        </mxCell>
        <mxCell id="a_Q3sGPEtlaXUqwok0g--11" value="" style="endArrow=classic;html=1;rounded=0;entryX=1;entryY=0.75;entryDx=0;entryDy=0;exitX=0;exitY=0.75;exitDx=0;exitDy=0;" edge="1" parent="1" source="a_Q3sGPEtlaXUqwok0g--2" target="a_Q3sGPEtlaXUqwok0g--1">
          <mxGeometry width="50" height="50" relative="1" as="geometry">
            <mxPoint x="430" y="360" as="sourcePoint" />
            <mxPoint x="480" y="310" as="targetPoint" />
          </mxGeometry>
        </mxCell>
        <mxCell id="a_Q3sGPEtlaXUqwok0g--13" value="verify-result" style="text;html=1;strokeColor=none;fillColor=none;align=center;verticalAlign=middle;whiteSpace=wrap;rounded=0;" vertex="1" parent="1">
          <mxGeometry x="357" y="246" width="150" height="30" as="geometry" />
        </mxCell>
        <mxCell id="a_Q3sGPEtlaXUqwok0g--14" style="edgeStyle=orthogonalEdgeStyle;rounded=0;orthogonalLoop=1;jettySize=auto;html=1;entryX=0.5;entryY=0;entryDx=0;entryDy=0;entryPerimeter=0;" edge="1" parent="1" source="a_Q3sGPEtlaXUqwok0g--2" target="a_Q3sGPEtlaXUqwok0g--3">
          <mxGeometry relative="1" as="geometry" />
        </mxCell>
        <mxCell id="a_Q3sGPEtlaXUqwok0g--19" style="edgeStyle=orthogonalEdgeStyle;rounded=0;orthogonalLoop=1;jettySize=auto;html=1;entryX=0.5;entryY=0;entryDx=0;entryDy=0;" edge="1" parent="1" source="a_Q3sGPEtlaXUqwok0g--16" target="a_Q3sGPEtlaXUqwok0g--18">
          <mxGeometry relative="1" as="geometry" />
        </mxCell>
        <mxCell id="a_Q3sGPEtlaXUqwok0g--16" value="verify-failed" style="rhombus;whiteSpace=wrap;html=1;" vertex="1" parent="1">
          <mxGeometry x="450" y="310" width="100" height="80" as="geometry" />
        </mxCell>
        <mxCell id="a_Q3sGPEtlaXUqwok0g--17" value="" style="endArrow=classic;html=1;rounded=0;entryX=1;entryY=0.5;entryDx=0;entryDy=0;" edge="1" parent="1" target="a_Q3sGPEtlaXUqwok0g--16">
          <mxGeometry width="50" height="50" relative="1" as="geometry">
            <mxPoint x="640" y="350" as="sourcePoint" />
            <mxPoint x="490" y="400" as="targetPoint" />
          </mxGeometry>
        </mxCell>
        <mxCell id="a_Q3sGPEtlaXUqwok0g--18" value="send email" style="rounded=0;whiteSpace=wrap;html=1;" vertex="1" parent="1">
          <mxGeometry x="440" y="470" width="120" height="60" as="geometry" />
        </mxCell>
        <mxCell id="a_Q3sGPEtlaXUqwok0g--20" value="send verify request" style="text;html=1;strokeColor=none;fillColor=none;align=center;verticalAlign=middle;whiteSpace=wrap;rounded=0;" vertex="1" parent="1">
          <mxGeometry x="710" y="189" width="150" height="30" as="geometry" />
        </mxCell>
        <mxCell id="a_Q3sGPEtlaXUqwok0g--21" value="verify-result" style="text;html=1;strokeColor=none;fillColor=none;align=center;verticalAlign=middle;whiteSpace=wrap;rounded=0;" vertex="1" parent="1">
          <mxGeometry x="712" y="248" width="150" height="30" as="geometry" />
        </mxCell>
      </root>
    </mxGraphModel>
  </diagram>
</mxfile>
